<mxfile host="app.diagrams.net" modified="2021-01-29T15:56:43.389Z" agent="5.0 (Windows NT 10.0; Win64; x64) AppleWebKit/537.36 (KHTML, like Gecko) Chrome/88.0.4324.104 Safari/537.36" etag="emBkX-UCIQfP4Zhnt57x" version="14.2.7" type="github" pages="3">
  <diagram id="zoY4bVfi0GgKi_RpPcfQ" name="sa">
    <mxGraphModel dx="1038" dy="548" grid="1" gridSize="10" guides="0" tooltips="1" connect="0" arrows="0" fold="1" page="1" pageScale="1" pageWidth="1169" pageHeight="827" math="1" shadow="0">
      <root>
        <mxCell id="0" />
        <mxCell id="1" parent="0" />
        <mxCell id="xjZFVo7Bgdqzg_icGuoh-61" value="" style="rounded=0;whiteSpace=wrap;html=1;fillColor=none;dashed=1;" vertex="1" parent="1">
          <mxGeometry x="150" y="330" width="240" height="110" as="geometry" />
        </mxCell>
        <mxCell id="xjZFVo7Bgdqzg_icGuoh-1" value="0" style="rounded=0;whiteSpace=wrap;html=1;" vertex="1" parent="1">
          <mxGeometry x="170" y="140" width="20" height="20" as="geometry" />
        </mxCell>
        <mxCell id="xjZFVo7Bgdqzg_icGuoh-2" value="1" style="rounded=0;whiteSpace=wrap;html=1;fillColor=#f8cecc;strokeColor=#b85450;" vertex="1" parent="1">
          <mxGeometry x="190" y="140" width="20" height="20" as="geometry" />
        </mxCell>
        <mxCell id="xjZFVo7Bgdqzg_icGuoh-3" value="2" style="rounded=0;whiteSpace=wrap;html=1;fillColor=#f5f5f5;strokeColor=#666666;fontColor=#333333;" vertex="1" parent="1">
          <mxGeometry x="210" y="140" width="20" height="20" as="geometry" />
        </mxCell>
        <mxCell id="xjZFVo7Bgdqzg_icGuoh-4" value="3" style="rounded=0;whiteSpace=wrap;html=1;" vertex="1" parent="1">
          <mxGeometry x="230" y="140" width="20" height="20" as="geometry" />
        </mxCell>
        <mxCell id="xjZFVo7Bgdqzg_icGuoh-5" value="4" style="rounded=0;whiteSpace=wrap;html=1;fillColor=#f5f5f5;strokeColor=#666666;fontColor=#333333;" vertex="1" parent="1">
          <mxGeometry x="250" y="140" width="20" height="20" as="geometry" />
        </mxCell>
        <mxCell id="xjZFVo7Bgdqzg_icGuoh-6" value="5" style="rounded=0;whiteSpace=wrap;html=1;fillColor=#f8cecc;strokeColor=#b85450;" vertex="1" parent="1">
          <mxGeometry x="270" y="140" width="20" height="20" as="geometry" />
        </mxCell>
        <mxCell id="xjZFVo7Bgdqzg_icGuoh-7" value="6" style="rounded=0;whiteSpace=wrap;html=1;fillColor=#f5f5f5;strokeColor=#666666;fontColor=#333333;" vertex="1" parent="1">
          <mxGeometry x="290" y="140" width="20" height="20" as="geometry" />
        </mxCell>
        <mxCell id="xjZFVo7Bgdqzg_icGuoh-8" value="7" style="rounded=0;whiteSpace=wrap;html=1;fillColor=#60a917;strokeColor=#2D7600;fontColor=#ffffff;" vertex="1" parent="1">
          <mxGeometry x="310" y="140" width="20" height="20" as="geometry" />
        </mxCell>
        <mxCell id="xjZFVo7Bgdqzg_icGuoh-9" value="&lt;font style=&quot;font-size: 13px&quot;&gt;\(x_{input}\)&lt;/font&gt;" style="text;html=1;strokeColor=none;fillColor=none;align=center;verticalAlign=middle;whiteSpace=wrap;rounded=0;" vertex="1" parent="1">
          <mxGeometry x="130" y="140" width="40" height="20" as="geometry" />
        </mxCell>
        <mxCell id="xjZFVo7Bgdqzg_icGuoh-19" value="" style="endArrow=classic;html=1;" edge="1" parent="1">
          <mxGeometry width="50" height="50" relative="1" as="geometry">
            <mxPoint x="220" y="160" as="sourcePoint" />
            <mxPoint x="190" y="180" as="targetPoint" />
          </mxGeometry>
        </mxCell>
        <mxCell id="xjZFVo7Bgdqzg_icGuoh-21" value="1" style="rounded=0;whiteSpace=wrap;html=1;fillColor=#f8cecc;strokeColor=#b85450;" vertex="1" parent="1">
          <mxGeometry x="170" y="180" width="20" height="20" as="geometry" />
        </mxCell>
        <mxCell id="xjZFVo7Bgdqzg_icGuoh-22" value="5" style="rounded=0;whiteSpace=wrap;html=1;fillColor=#f8cecc;strokeColor=#b85450;" vertex="1" parent="1">
          <mxGeometry x="190" y="180" width="20" height="20" as="geometry" />
        </mxCell>
        <mxCell id="xjZFVo7Bgdqzg_icGuoh-23" value="2" style="rounded=0;whiteSpace=wrap;html=1;fillColor=#f5f5f5;strokeColor=#666666;fontColor=#333333;" vertex="1" parent="1">
          <mxGeometry x="320" y="180" width="20" height="20" as="geometry" />
        </mxCell>
        <mxCell id="xjZFVo7Bgdqzg_icGuoh-24" value="4" style="rounded=0;whiteSpace=wrap;html=1;fillColor=#f5f5f5;strokeColor=#666666;fontColor=#333333;" vertex="1" parent="1">
          <mxGeometry x="340" y="180" width="20" height="20" as="geometry" />
        </mxCell>
        <mxCell id="xjZFVo7Bgdqzg_icGuoh-25" value="6" style="rounded=0;whiteSpace=wrap;html=1;fillColor=#f5f5f5;strokeColor=#666666;fontColor=#333333;" vertex="1" parent="1">
          <mxGeometry x="360" y="180" width="20" height="20" as="geometry" />
        </mxCell>
        <mxCell id="xjZFVo7Bgdqzg_icGuoh-26" value="&lt;font style=&quot;font-size: 13px&quot;&gt;\(w_{replaced}\)&lt;/font&gt;" style="text;html=1;strokeColor=none;fillColor=none;align=center;verticalAlign=middle;whiteSpace=wrap;rounded=0;" vertex="1" parent="1">
          <mxGeometry x="120" y="180" width="40" height="20" as="geometry" />
        </mxCell>
        <mxCell id="xjZFVo7Bgdqzg_icGuoh-27" value="&lt;font style=&quot;font-size: 13px&quot;&gt;\(w_{non-replaced}\)&lt;/font&gt;" style="text;html=1;strokeColor=none;fillColor=none;align=center;verticalAlign=middle;whiteSpace=wrap;rounded=0;" vertex="1" parent="1">
          <mxGeometry x="240" y="180" width="80" height="20" as="geometry" />
        </mxCell>
        <mxCell id="xjZFVo7Bgdqzg_icGuoh-28" value="" style="endArrow=classic;html=1;" edge="1" parent="1">
          <mxGeometry width="50" height="50" relative="1" as="geometry">
            <mxPoint x="290" y="160" as="sourcePoint" />
            <mxPoint x="320" y="180" as="targetPoint" />
          </mxGeometry>
        </mxCell>
        <mxCell id="xjZFVo7Bgdqzg_icGuoh-29" value="" style="endArrow=classic;html=1;" edge="1" parent="1">
          <mxGeometry width="50" height="50" relative="1" as="geometry">
            <mxPoint x="260" y="210" as="sourcePoint" />
            <mxPoint x="260" y="240" as="targetPoint" />
          </mxGeometry>
        </mxCell>
        <mxCell id="xjZFVo7Bgdqzg_icGuoh-30" value="&lt;font style=&quot;font-size: 11px&quot;&gt;sort by saliency&lt;/font&gt;" style="text;html=1;strokeColor=none;fillColor=none;align=center;verticalAlign=middle;whiteSpace=wrap;rounded=0;" vertex="1" parent="1">
          <mxGeometry x="140" y="220" width="90" height="10" as="geometry" />
        </mxCell>
        <mxCell id="xjZFVo7Bgdqzg_icGuoh-32" value="5" style="rounded=0;whiteSpace=wrap;html=1;strokeColor=#b85450;fillColor=#CCCCFF;" vertex="1" parent="1">
          <mxGeometry x="170" y="250" width="20" height="20" as="geometry" />
        </mxCell>
        <mxCell id="xjZFVo7Bgdqzg_icGuoh-33" value="1" style="rounded=0;whiteSpace=wrap;html=1;strokeColor=#b85450;fillColor=#CC99FF;" vertex="1" parent="1">
          <mxGeometry x="190" y="250" width="20" height="20" as="geometry" />
        </mxCell>
        <mxCell id="xjZFVo7Bgdqzg_icGuoh-34" value="6" style="rounded=0;whiteSpace=wrap;html=1;strokeColor=#666666;fontColor=#333333;fillColor=#6666FF;" vertex="1" parent="1">
          <mxGeometry x="320" y="250" width="20" height="20" as="geometry" />
        </mxCell>
        <mxCell id="xjZFVo7Bgdqzg_icGuoh-35" value="2" style="rounded=0;whiteSpace=wrap;html=1;strokeColor=#666666;fontColor=#333333;fillColor=#9999FF;" vertex="1" parent="1">
          <mxGeometry x="340" y="250" width="20" height="20" as="geometry" />
        </mxCell>
        <mxCell id="xjZFVo7Bgdqzg_icGuoh-36" value="4" style="rounded=0;whiteSpace=wrap;html=1;strokeColor=#666666;fontColor=#333333;fillColor=#E5CCFF;" vertex="1" parent="1">
          <mxGeometry x="360" y="250" width="20" height="20" as="geometry" />
        </mxCell>
        <mxCell id="xjZFVo7Bgdqzg_icGuoh-37" value="&lt;font style=&quot;font-size: 13px&quot;&gt;\(w&#39;_{replaced}\)&lt;/font&gt;" style="text;html=1;strokeColor=none;fillColor=none;align=center;verticalAlign=middle;whiteSpace=wrap;rounded=0;" vertex="1" parent="1">
          <mxGeometry x="120" y="250" width="40" height="20" as="geometry" />
        </mxCell>
        <mxCell id="xjZFVo7Bgdqzg_icGuoh-38" value="&lt;font style=&quot;font-size: 13px&quot;&gt;\(w&#39;_{non-replaced}\)&lt;/font&gt;" style="text;html=1;strokeColor=none;fillColor=none;align=center;verticalAlign=middle;whiteSpace=wrap;rounded=0;" vertex="1" parent="1">
          <mxGeometry x="240" y="250" width="80" height="20" as="geometry" />
        </mxCell>
        <mxCell id="xjZFVo7Bgdqzg_icGuoh-47" value="get score" style="text;html=1;strokeColor=none;fillColor=none;align=center;verticalAlign=middle;whiteSpace=wrap;rounded=0;" vertex="1" parent="1">
          <mxGeometry x="170" y="350" width="40" height="20" as="geometry" />
        </mxCell>
        <mxCell id="xjZFVo7Bgdqzg_icGuoh-48" value="5" style="rounded=0;whiteSpace=wrap;html=1;strokeColor=#2D7600;fillColor=#60a917;fontColor=#ffffff;" vertex="1" parent="1">
          <mxGeometry x="230" y="340" width="20" height="20" as="geometry" />
        </mxCell>
        <mxCell id="xjZFVo7Bgdqzg_icGuoh-49" value="6" style="rounded=0;whiteSpace=wrap;html=1;strokeColor=#b85450;fillColor=#f8cecc;" vertex="1" parent="1">
          <mxGeometry x="290" y="340" width="20" height="20" as="geometry" />
        </mxCell>
        <mxCell id="xjZFVo7Bgdqzg_icGuoh-62" value="" style="endArrow=classic;html=1;" edge="1" parent="1">
          <mxGeometry width="50" height="50" relative="1" as="geometry">
            <mxPoint x="240" y="400" as="sourcePoint" />
            <mxPoint x="240" y="430" as="targetPoint" />
          </mxGeometry>
        </mxCell>
        <mxCell id="xjZFVo7Bgdqzg_icGuoh-63" value="" style="endArrow=classic;html=1;" edge="1" parent="1">
          <mxGeometry width="50" height="50" relative="1" as="geometry">
            <mxPoint x="360" y="450" as="sourcePoint" />
            <mxPoint x="360" y="480" as="targetPoint" />
          </mxGeometry>
        </mxCell>
        <mxCell id="xjZFVo7Bgdqzg_icGuoh-64" value="not better" style="text;html=1;strokeColor=none;fillColor=none;align=center;verticalAlign=middle;whiteSpace=wrap;rounded=0;" vertex="1" parent="1">
          <mxGeometry x="280" y="410" width="60" height="20" as="geometry" />
        </mxCell>
        <mxCell id="xjZFVo7Bgdqzg_icGuoh-65" value="better" style="text;html=1;strokeColor=none;fillColor=none;align=center;verticalAlign=middle;whiteSpace=wrap;rounded=0;" vertex="1" parent="1">
          <mxGeometry x="180" y="460" width="40" height="20" as="geometry" />
        </mxCell>
        <mxCell id="xjZFVo7Bgdqzg_icGuoh-72" value="0" style="rounded=0;whiteSpace=wrap;html=1;" vertex="1" parent="1">
          <mxGeometry x="350" y="500" width="20" height="20" as="geometry" />
        </mxCell>
        <mxCell id="xjZFVo7Bgdqzg_icGuoh-73" value="1" style="rounded=0;whiteSpace=wrap;html=1;fillColor=#f8cecc;strokeColor=#b85450;" vertex="1" parent="1">
          <mxGeometry x="370" y="500" width="20" height="20" as="geometry" />
        </mxCell>
        <mxCell id="xjZFVo7Bgdqzg_icGuoh-74" value="2" style="rounded=0;whiteSpace=wrap;html=1;fillColor=#f5f5f5;strokeColor=#666666;fontColor=#333333;" vertex="1" parent="1">
          <mxGeometry x="390" y="500" width="20" height="20" as="geometry" />
        </mxCell>
        <mxCell id="xjZFVo7Bgdqzg_icGuoh-75" value="3" style="rounded=0;whiteSpace=wrap;html=1;" vertex="1" parent="1">
          <mxGeometry x="410" y="500" width="20" height="20" as="geometry" />
        </mxCell>
        <mxCell id="xjZFVo7Bgdqzg_icGuoh-76" value="4" style="rounded=0;whiteSpace=wrap;html=1;fillColor=#f5f5f5;strokeColor=#666666;fontColor=#333333;" vertex="1" parent="1">
          <mxGeometry x="430" y="500" width="20" height="20" as="geometry" />
        </mxCell>
        <mxCell id="xjZFVo7Bgdqzg_icGuoh-77" value="5" style="rounded=0;whiteSpace=wrap;html=1;fillColor=#f8cecc;strokeColor=#b85450;" vertex="1" parent="1">
          <mxGeometry x="450" y="500" width="20" height="20" as="geometry" />
        </mxCell>
        <mxCell id="xjZFVo7Bgdqzg_icGuoh-78" value="6" style="rounded=0;whiteSpace=wrap;html=1;fillColor=#f5f5f5;strokeColor=#666666;fontColor=#333333;" vertex="1" parent="1">
          <mxGeometry x="470" y="500" width="20" height="20" as="geometry" />
        </mxCell>
        <mxCell id="xjZFVo7Bgdqzg_icGuoh-79" value="7" style="rounded=0;whiteSpace=wrap;html=1;fillColor=#60a917;strokeColor=#2D7600;fontColor=#ffffff;" vertex="1" parent="1">
          <mxGeometry x="490" y="500" width="20" height="20" as="geometry" />
        </mxCell>
        <mxCell id="xjZFVo7Bgdqzg_icGuoh-80" value="&lt;font style=&quot;font-size: 13px&quot;&gt;\(x_{output}\)&lt;/font&gt;" style="text;html=1;strokeColor=none;fillColor=none;align=center;verticalAlign=middle;whiteSpace=wrap;rounded=0;" vertex="1" parent="1">
          <mxGeometry x="310" y="500" width="40" height="20" as="geometry" />
        </mxCell>
        <mxCell id="xjZFVo7Bgdqzg_icGuoh-81" value="0" style="rounded=0;whiteSpace=wrap;html=1;" vertex="1" parent="1">
          <mxGeometry x="120" y="500" width="20" height="20" as="geometry" />
        </mxCell>
        <mxCell id="xjZFVo7Bgdqzg_icGuoh-82" value="1" style="rounded=0;whiteSpace=wrap;html=1;fillColor=#60a917;strokeColor=#2D7600;fontColor=#ffffff;" vertex="1" parent="1">
          <mxGeometry x="140" y="500" width="20" height="20" as="geometry" />
        </mxCell>
        <mxCell id="xjZFVo7Bgdqzg_icGuoh-83" value="2" style="rounded=0;whiteSpace=wrap;html=1;fillColor=#f5f5f5;strokeColor=#666666;fontColor=#333333;" vertex="1" parent="1">
          <mxGeometry x="160" y="500" width="20" height="20" as="geometry" />
        </mxCell>
        <mxCell id="xjZFVo7Bgdqzg_icGuoh-84" value="3" style="rounded=0;whiteSpace=wrap;html=1;" vertex="1" parent="1">
          <mxGeometry x="180" y="500" width="20" height="20" as="geometry" />
        </mxCell>
        <mxCell id="xjZFVo7Bgdqzg_icGuoh-85" value="4" style="rounded=0;whiteSpace=wrap;html=1;fillColor=#f5f5f5;strokeColor=#666666;fontColor=#333333;" vertex="1" parent="1">
          <mxGeometry x="200" y="500" width="20" height="20" as="geometry" />
        </mxCell>
        <mxCell id="xjZFVo7Bgdqzg_icGuoh-86" value="5" style="rounded=0;whiteSpace=wrap;html=1;fillColor=#f8cecc;strokeColor=#b85450;" vertex="1" parent="1">
          <mxGeometry x="220" y="500" width="20" height="20" as="geometry" />
        </mxCell>
        <mxCell id="xjZFVo7Bgdqzg_icGuoh-87" value="6" style="rounded=0;whiteSpace=wrap;html=1;fillColor=#f8cecc;strokeColor=#b85450;" vertex="1" parent="1">
          <mxGeometry x="240" y="500" width="20" height="20" as="geometry" />
        </mxCell>
        <mxCell id="xjZFVo7Bgdqzg_icGuoh-88" value="7" style="rounded=0;whiteSpace=wrap;html=1;fillColor=#f5f5f5;strokeColor=#666666;fontColor=#333333;" vertex="1" parent="1">
          <mxGeometry x="260" y="500" width="20" height="20" as="geometry" />
        </mxCell>
        <mxCell id="xjZFVo7Bgdqzg_icGuoh-89" value="&lt;font style=&quot;font-size: 13px&quot;&gt;\(x_{output}\)&lt;/font&gt;" style="text;html=1;strokeColor=none;fillColor=none;align=center;verticalAlign=middle;whiteSpace=wrap;rounded=0;" vertex="1" parent="1">
          <mxGeometry x="80" y="500" width="40" height="20" as="geometry" />
        </mxCell>
        <mxCell id="xjZFVo7Bgdqzg_icGuoh-90" value="Restore and replace" style="text;html=1;strokeColor=none;fillColor=none;align=center;verticalAlign=middle;whiteSpace=wrap;rounded=0;dashed=1;" vertex="1" parent="1">
          <mxGeometry x="130" y="290" width="120" height="10" as="geometry" />
        </mxCell>
        <mxCell id="xjZFVo7Bgdqzg_icGuoh-91" value="" style="endArrow=classic;html=1;" edge="1" parent="1">
          <mxGeometry width="50" height="50" relative="1" as="geometry">
            <mxPoint x="260" y="280" as="sourcePoint" />
            <mxPoint x="260" y="320" as="targetPoint" />
          </mxGeometry>
        </mxCell>
        <mxCell id="xjZFVo7Bgdqzg_icGuoh-92" value="1" style="rounded=0;whiteSpace=wrap;html=1;strokeColor=#b85450;fillColor=#f8cecc;" vertex="1" parent="1">
          <mxGeometry x="270" y="340" width="20" height="20" as="geometry" />
        </mxCell>
        <mxCell id="xjZFVo7Bgdqzg_icGuoh-93" value="5" style="rounded=0;whiteSpace=wrap;html=1;strokeColor=#2D7600;fillColor=#60a917;fontColor=#ffffff;" vertex="1" parent="1">
          <mxGeometry x="230" y="370" width="20" height="20" as="geometry" />
        </mxCell>
        <mxCell id="xjZFVo7Bgdqzg_icGuoh-94" value="2" style="rounded=0;whiteSpace=wrap;html=1;strokeColor=#b85450;fillColor=#f8cecc;" vertex="1" parent="1">
          <mxGeometry x="290" y="370" width="20" height="20" as="geometry" />
        </mxCell>
        <mxCell id="xjZFVo7Bgdqzg_icGuoh-95" value="1" style="rounded=0;whiteSpace=wrap;html=1;strokeColor=#b85450;fillColor=#f8cecc;" vertex="1" parent="1">
          <mxGeometry x="270" y="370" width="20" height="20" as="geometry" />
        </mxCell>
        <mxCell id="xjZFVo7Bgdqzg_icGuoh-97" value="" style="endArrow=classic;html=1;edgeStyle=orthogonalEdgeStyle;curved=1;" edge="1" parent="1">
          <mxGeometry width="50" height="50" relative="1" as="geometry">
            <mxPoint x="260" y="400" as="sourcePoint" />
            <mxPoint x="320" y="370" as="targetPoint" />
            <Array as="points">
              <mxPoint x="350" y="410" />
              <mxPoint x="350" y="370" />
            </Array>
          </mxGeometry>
        </mxCell>
        <mxCell id="xjZFVo7Bgdqzg_icGuoh-98" value="1" style="rounded=0;whiteSpace=wrap;html=1;fillColor=#60a917;strokeColor=#2D7600;fontColor=#ffffff;" vertex="1" parent="1">
          <mxGeometry x="360" y="410" width="20" height="20" as="geometry" />
        </mxCell>
        <mxCell id="xjZFVo7Bgdqzg_icGuoh-99" value="5" style="rounded=0;whiteSpace=wrap;html=1;strokeColor=#b85450;fillColor=#f8cecc;" vertex="1" parent="1">
          <mxGeometry x="340" y="410" width="20" height="20" as="geometry" />
        </mxCell>
        <mxCell id="xjZFVo7Bgdqzg_icGuoh-100" value="better" style="text;html=1;strokeColor=none;fillColor=none;align=center;verticalAlign=middle;whiteSpace=wrap;rounded=0;" vertex="1" parent="1">
          <mxGeometry x="170" y="410" width="60" height="20" as="geometry" />
        </mxCell>
        <mxCell id="xjZFVo7Bgdqzg_icGuoh-101" value="" style="endArrow=classic;html=1;" edge="1" parent="1">
          <mxGeometry width="50" height="50" relative="1" as="geometry">
            <mxPoint x="240" y="450" as="sourcePoint" />
            <mxPoint x="240" y="480" as="targetPoint" />
          </mxGeometry>
        </mxCell>
        <mxCell id="xjZFVo7Bgdqzg_icGuoh-102" value="not better" style="text;html=1;strokeColor=none;fillColor=none;align=center;verticalAlign=middle;whiteSpace=wrap;rounded=0;" vertex="1" parent="1">
          <mxGeometry x="290" y="460" width="60" height="20" as="geometry" />
        </mxCell>
        <mxCell id="xjZFVo7Bgdqzg_icGuoh-103" value="" style="rounded=0;whiteSpace=wrap;html=1;" vertex="1" parent="1">
          <mxGeometry x="430" y="150" width="20" height="10" as="geometry" />
        </mxCell>
        <mxCell id="xjZFVo7Bgdqzg_icGuoh-104" value="&lt;div style=&quot;text-align: left&quot;&gt;&lt;span&gt;can&#39;t replace&lt;/span&gt;&lt;/div&gt;&lt;div style=&quot;text-align: left&quot;&gt;&lt;span&gt;repalced&lt;/span&gt;&lt;/div&gt;&lt;div style=&quot;text-align: left&quot;&gt;&lt;span&gt;non-replaced&lt;/span&gt;&lt;/div&gt;&lt;div style=&quot;text-align: left&quot;&gt;taboo&lt;/div&gt;" style="text;strokeColor=none;fillColor=none;align=center;verticalAlign=middle;whiteSpace=wrap;rounded=0;dashed=1;textOpacity=80;spacing=1;spacingBottom=0;fontStyle=0;html=1;" vertex="1" parent="1">
          <mxGeometry x="450" y="150" width="90" height="30" as="geometry" />
        </mxCell>
        <mxCell id="xjZFVo7Bgdqzg_icGuoh-105" value="" style="rounded=0;whiteSpace=wrap;html=1;fillColor=#dae8fc;strokeColor=#6c8ebf;" vertex="1" parent="1">
          <mxGeometry x="430" y="160" width="20" height="10" as="geometry" />
        </mxCell>
        <mxCell id="xjZFVo7Bgdqzg_icGuoh-106" value="" style="rounded=0;whiteSpace=wrap;html=1;fillColor=#f8cecc;strokeColor=#b85450;" vertex="1" parent="1">
          <mxGeometry x="430" y="170" width="20" height="10" as="geometry" />
        </mxCell>
        <mxCell id="xjZFVo7Bgdqzg_icGuoh-108" value="" style="rounded=0;whiteSpace=wrap;html=1;fillColor=#60a917;strokeColor=#2D7600;fontColor=#ffffff;" vertex="1" parent="1">
          <mxGeometry x="430" y="180" width="20" height="10" as="geometry" />
        </mxCell>
        <mxCell id="xjZFVo7Bgdqzg_icGuoh-109" value="" style="rounded=0;whiteSpace=wrap;html=1;fillColor=#CCCCFF;gradientDirection=north;gradientColor=#0000FF;" vertex="1" parent="1">
          <mxGeometry x="430" y="240" width="20" height="50" as="geometry" />
        </mxCell>
        <mxCell id="xjZFVo7Bgdqzg_icGuoh-110" value="high score" style="text;html=1;strokeColor=none;fillColor=none;align=center;verticalAlign=middle;whiteSpace=wrap;rounded=0;" vertex="1" parent="1">
          <mxGeometry x="450" y="230" width="70" height="10" as="geometry" />
        </mxCell>
        <mxCell id="xjZFVo7Bgdqzg_icGuoh-111" value="low score" style="text;html=1;strokeColor=none;fillColor=none;align=center;verticalAlign=middle;whiteSpace=wrap;rounded=0;" vertex="1" parent="1">
          <mxGeometry x="450" y="280" width="70" height="10" as="geometry" />
        </mxCell>
      </root>
    </mxGraphModel>
  </diagram>
  <diagram id="4YRf_OnU5wEa1IhbV-GB" name="ce">
    <mxGraphModel dx="1038" dy="548" grid="1" gridSize="10" guides="0" tooltips="1" connect="0" arrows="1" fold="1" page="1" pageScale="1" pageWidth="1169" pageHeight="827" math="1" shadow="0">
      <root>
        <mxCell id="B5aAuwKSuuJqD-qLANvu-0" />
        <mxCell id="B5aAuwKSuuJqD-qLANvu-1" parent="B5aAuwKSuuJqD-qLANvu-0" />
        <mxCell id="xqVvEu_A4T18Dzu_kgtU-0" value="" style="rounded=0;whiteSpace=wrap;html=1;fillColor=none;dashed=1;" vertex="1" parent="B5aAuwKSuuJqD-qLANvu-1">
          <mxGeometry x="140" y="330" width="240" height="160" as="geometry" />
        </mxCell>
        <mxCell id="xqVvEu_A4T18Dzu_kgtU-1" value="0" style="rounded=0;whiteSpace=wrap;html=1;" vertex="1" parent="B5aAuwKSuuJqD-qLANvu-1">
          <mxGeometry x="170" y="140" width="20" height="20" as="geometry" />
        </mxCell>
        <mxCell id="xqVvEu_A4T18Dzu_kgtU-2" value="1" style="rounded=0;whiteSpace=wrap;html=1;fillColor=#f8cecc;strokeColor=#b85450;" vertex="1" parent="B5aAuwKSuuJqD-qLANvu-1">
          <mxGeometry x="190" y="140" width="20" height="20" as="geometry" />
        </mxCell>
        <mxCell id="xqVvEu_A4T18Dzu_kgtU-3" value="2" style="rounded=0;whiteSpace=wrap;html=1;fillColor=#f5f5f5;strokeColor=#666666;fontColor=#333333;" vertex="1" parent="B5aAuwKSuuJqD-qLANvu-1">
          <mxGeometry x="210" y="140" width="20" height="20" as="geometry" />
        </mxCell>
        <mxCell id="xqVvEu_A4T18Dzu_kgtU-4" value="3" style="rounded=0;whiteSpace=wrap;html=1;" vertex="1" parent="B5aAuwKSuuJqD-qLANvu-1">
          <mxGeometry x="230" y="140" width="20" height="20" as="geometry" />
        </mxCell>
        <mxCell id="xqVvEu_A4T18Dzu_kgtU-5" value="4" style="rounded=0;whiteSpace=wrap;html=1;fillColor=#f5f5f5;strokeColor=#666666;fontColor=#333333;" vertex="1" parent="B5aAuwKSuuJqD-qLANvu-1">
          <mxGeometry x="250" y="140" width="20" height="20" as="geometry" />
        </mxCell>
        <mxCell id="xqVvEu_A4T18Dzu_kgtU-6" value="5" style="rounded=0;whiteSpace=wrap;html=1;fillColor=#f8cecc;strokeColor=#b85450;" vertex="1" parent="B5aAuwKSuuJqD-qLANvu-1">
          <mxGeometry x="270" y="140" width="20" height="20" as="geometry" />
        </mxCell>
        <mxCell id="xqVvEu_A4T18Dzu_kgtU-7" value="6" style="rounded=0;whiteSpace=wrap;html=1;fillColor=#f5f5f5;strokeColor=#666666;fontColor=#333333;" vertex="1" parent="B5aAuwKSuuJqD-qLANvu-1">
          <mxGeometry x="290" y="140" width="20" height="20" as="geometry" />
        </mxCell>
        <mxCell id="xqVvEu_A4T18Dzu_kgtU-8" value="7" style="rounded=0;whiteSpace=wrap;html=1;fillColor=#60a917;strokeColor=#2D7600;fontColor=#ffffff;" vertex="1" parent="B5aAuwKSuuJqD-qLANvu-1">
          <mxGeometry x="310" y="140" width="20" height="20" as="geometry" />
        </mxCell>
        <mxCell id="xqVvEu_A4T18Dzu_kgtU-9" value="&lt;font style=&quot;font-size: 13px&quot;&gt;\(x_{input}\)&lt;/font&gt;" style="text;html=1;strokeColor=none;fillColor=none;align=center;verticalAlign=middle;whiteSpace=wrap;rounded=0;" vertex="1" parent="B5aAuwKSuuJqD-qLANvu-1">
          <mxGeometry x="130" y="140" width="40" height="20" as="geometry" />
        </mxCell>
        <mxCell id="xqVvEu_A4T18Dzu_kgtU-10" value="" style="endArrow=classic;html=1;" edge="1" parent="B5aAuwKSuuJqD-qLANvu-1">
          <mxGeometry width="50" height="50" relative="1" as="geometry">
            <mxPoint x="220" y="160" as="sourcePoint" />
            <mxPoint x="190" y="180" as="targetPoint" />
          </mxGeometry>
        </mxCell>
        <mxCell id="xqVvEu_A4T18Dzu_kgtU-11" value="1" style="rounded=0;whiteSpace=wrap;html=1;fillColor=#f8cecc;strokeColor=#b85450;" vertex="1" parent="B5aAuwKSuuJqD-qLANvu-1">
          <mxGeometry x="170" y="180" width="20" height="20" as="geometry" />
        </mxCell>
        <mxCell id="xqVvEu_A4T18Dzu_kgtU-12" value="5" style="rounded=0;whiteSpace=wrap;html=1;fillColor=#f8cecc;strokeColor=#b85450;" vertex="1" parent="B5aAuwKSuuJqD-qLANvu-1">
          <mxGeometry x="190" y="180" width="20" height="20" as="geometry" />
        </mxCell>
        <mxCell id="xqVvEu_A4T18Dzu_kgtU-13" value="2" style="rounded=0;whiteSpace=wrap;html=1;fillColor=#f5f5f5;strokeColor=#666666;fontColor=#333333;" vertex="1" parent="B5aAuwKSuuJqD-qLANvu-1">
          <mxGeometry x="320" y="180" width="20" height="20" as="geometry" />
        </mxCell>
        <mxCell id="xqVvEu_A4T18Dzu_kgtU-14" value="4" style="rounded=0;whiteSpace=wrap;html=1;fillColor=#f5f5f5;strokeColor=#666666;fontColor=#333333;" vertex="1" parent="B5aAuwKSuuJqD-qLANvu-1">
          <mxGeometry x="340" y="180" width="20" height="20" as="geometry" />
        </mxCell>
        <mxCell id="xqVvEu_A4T18Dzu_kgtU-15" value="6" style="rounded=0;whiteSpace=wrap;html=1;fillColor=#f5f5f5;strokeColor=#666666;fontColor=#333333;" vertex="1" parent="B5aAuwKSuuJqD-qLANvu-1">
          <mxGeometry x="360" y="180" width="20" height="20" as="geometry" />
        </mxCell>
        <mxCell id="xqVvEu_A4T18Dzu_kgtU-16" value="&lt;font style=&quot;font-size: 13px&quot;&gt;\(w_{replaced}\)&lt;/font&gt;" style="text;html=1;strokeColor=none;fillColor=none;align=center;verticalAlign=middle;whiteSpace=wrap;rounded=0;" vertex="1" parent="B5aAuwKSuuJqD-qLANvu-1">
          <mxGeometry x="120" y="180" width="40" height="20" as="geometry" />
        </mxCell>
        <mxCell id="xqVvEu_A4T18Dzu_kgtU-17" value="&lt;font style=&quot;font-size: 13px&quot;&gt;\(w_{non-replaced}\)&lt;/font&gt;" style="text;html=1;strokeColor=none;fillColor=none;align=center;verticalAlign=middle;whiteSpace=wrap;rounded=0;" vertex="1" parent="B5aAuwKSuuJqD-qLANvu-1">
          <mxGeometry x="240" y="180" width="80" height="20" as="geometry" />
        </mxCell>
        <mxCell id="xqVvEu_A4T18Dzu_kgtU-18" value="" style="endArrow=classic;html=1;" edge="1" parent="B5aAuwKSuuJqD-qLANvu-1">
          <mxGeometry width="50" height="50" relative="1" as="geometry">
            <mxPoint x="290" y="160" as="sourcePoint" />
            <mxPoint x="320" y="180" as="targetPoint" />
          </mxGeometry>
        </mxCell>
        <mxCell id="xqVvEu_A4T18Dzu_kgtU-19" value="" style="endArrow=classic;html=1;" edge="1" parent="B5aAuwKSuuJqD-qLANvu-1">
          <mxGeometry width="50" height="50" relative="1" as="geometry">
            <mxPoint x="260" y="210" as="sourcePoint" />
            <mxPoint x="260" y="240" as="targetPoint" />
          </mxGeometry>
        </mxCell>
        <mxCell id="xqVvEu_A4T18Dzu_kgtU-20" value="&lt;font style=&quot;font-size: 11px&quot;&gt;sort by saliency&lt;/font&gt;" style="text;html=1;strokeColor=none;fillColor=none;align=center;verticalAlign=middle;whiteSpace=wrap;rounded=0;" vertex="1" parent="B5aAuwKSuuJqD-qLANvu-1">
          <mxGeometry x="150" y="220" width="90" height="10" as="geometry" />
        </mxCell>
        <mxCell id="xqVvEu_A4T18Dzu_kgtU-21" value="5" style="rounded=0;whiteSpace=wrap;html=1;strokeColor=#b85450;fillColor=#CCCCFF;" vertex="1" parent="B5aAuwKSuuJqD-qLANvu-1">
          <mxGeometry x="240" y="250" width="20" height="20" as="geometry" />
        </mxCell>
        <mxCell id="xqVvEu_A4T18Dzu_kgtU-22" value="1" style="rounded=0;whiteSpace=wrap;html=1;strokeColor=#b85450;fillColor=#CC99FF;" vertex="1" parent="B5aAuwKSuuJqD-qLANvu-1">
          <mxGeometry x="260" y="250" width="20" height="20" as="geometry" />
        </mxCell>
        <mxCell id="xqVvEu_A4T18Dzu_kgtU-26" value="&lt;font style=&quot;font-size: 13px&quot;&gt;\(w&#39;_{replaced}\)&lt;/font&gt;" style="text;html=1;strokeColor=none;fillColor=none;align=center;verticalAlign=middle;whiteSpace=wrap;rounded=0;" vertex="1" parent="B5aAuwKSuuJqD-qLANvu-1">
          <mxGeometry x="190" y="250" width="40" height="20" as="geometry" />
        </mxCell>
        <mxCell id="xqVvEu_A4T18Dzu_kgtU-28" value="get score" style="text;html=1;strokeColor=none;fillColor=none;align=center;verticalAlign=middle;whiteSpace=wrap;rounded=0;" vertex="1" parent="B5aAuwKSuuJqD-qLANvu-1">
          <mxGeometry x="150" y="350" width="40" height="20" as="geometry" />
        </mxCell>
        <mxCell id="xqVvEu_A4T18Dzu_kgtU-29" value="5" style="rounded=0;whiteSpace=wrap;html=1;strokeColor=#2D7600;fillColor=#60a917;fontColor=#ffffff;" vertex="1" parent="B5aAuwKSuuJqD-qLANvu-1">
          <mxGeometry x="210" y="340" width="20" height="20" as="geometry" />
        </mxCell>
        <mxCell id="xqVvEu_A4T18Dzu_kgtU-30" value="2" style="rounded=0;whiteSpace=wrap;html=1;strokeColor=#b85450;fillColor=#f8cecc;" vertex="1" parent="B5aAuwKSuuJqD-qLANvu-1">
          <mxGeometry x="270" y="340" width="20" height="20" as="geometry" />
        </mxCell>
        <mxCell id="xqVvEu_A4T18Dzu_kgtU-31" value="" style="endArrow=classic;html=1;" edge="1" parent="B5aAuwKSuuJqD-qLANvu-1">
          <mxGeometry width="50" height="50" relative="1" as="geometry">
            <mxPoint x="220" y="430" as="sourcePoint" />
            <mxPoint x="220" y="460" as="targetPoint" />
          </mxGeometry>
        </mxCell>
        <mxCell id="xqVvEu_A4T18Dzu_kgtU-32" value="" style="endArrow=classic;html=1;" edge="1" parent="B5aAuwKSuuJqD-qLANvu-1">
          <mxGeometry width="50" height="50" relative="1" as="geometry">
            <mxPoint x="340" y="500" as="sourcePoint" />
            <mxPoint x="340" y="530" as="targetPoint" />
          </mxGeometry>
        </mxCell>
        <mxCell id="xqVvEu_A4T18Dzu_kgtU-33" value="not better" style="text;html=1;strokeColor=none;fillColor=none;align=center;verticalAlign=middle;whiteSpace=wrap;rounded=0;" vertex="1" parent="B5aAuwKSuuJqD-qLANvu-1">
          <mxGeometry x="260" y="460" width="60" height="20" as="geometry" />
        </mxCell>
        <mxCell id="xqVvEu_A4T18Dzu_kgtU-34" value="better" style="text;html=1;strokeColor=none;fillColor=none;align=center;verticalAlign=middle;whiteSpace=wrap;rounded=0;" vertex="1" parent="B5aAuwKSuuJqD-qLANvu-1">
          <mxGeometry x="160" y="510" width="40" height="20" as="geometry" />
        </mxCell>
        <mxCell id="xqVvEu_A4T18Dzu_kgtU-35" value="0" style="rounded=0;whiteSpace=wrap;html=1;" vertex="1" parent="B5aAuwKSuuJqD-qLANvu-1">
          <mxGeometry x="330" y="550" width="20" height="20" as="geometry" />
        </mxCell>
        <mxCell id="xqVvEu_A4T18Dzu_kgtU-36" value="1" style="rounded=0;whiteSpace=wrap;html=1;fillColor=#f8cecc;strokeColor=#b85450;" vertex="1" parent="B5aAuwKSuuJqD-qLANvu-1">
          <mxGeometry x="350" y="550" width="20" height="20" as="geometry" />
        </mxCell>
        <mxCell id="xqVvEu_A4T18Dzu_kgtU-37" value="2" style="rounded=0;whiteSpace=wrap;html=1;fillColor=#f5f5f5;strokeColor=#666666;fontColor=#333333;" vertex="1" parent="B5aAuwKSuuJqD-qLANvu-1">
          <mxGeometry x="370" y="550" width="20" height="20" as="geometry" />
        </mxCell>
        <mxCell id="xqVvEu_A4T18Dzu_kgtU-38" value="3" style="rounded=0;whiteSpace=wrap;html=1;" vertex="1" parent="B5aAuwKSuuJqD-qLANvu-1">
          <mxGeometry x="390" y="550" width="20" height="20" as="geometry" />
        </mxCell>
        <mxCell id="xqVvEu_A4T18Dzu_kgtU-39" value="4" style="rounded=0;whiteSpace=wrap;html=1;fillColor=#f5f5f5;strokeColor=#666666;fontColor=#333333;" vertex="1" parent="B5aAuwKSuuJqD-qLANvu-1">
          <mxGeometry x="410" y="550" width="20" height="20" as="geometry" />
        </mxCell>
        <mxCell id="xqVvEu_A4T18Dzu_kgtU-40" value="5" style="rounded=0;whiteSpace=wrap;html=1;fillColor=#f8cecc;strokeColor=#b85450;" vertex="1" parent="B5aAuwKSuuJqD-qLANvu-1">
          <mxGeometry x="430" y="550" width="20" height="20" as="geometry" />
        </mxCell>
        <mxCell id="xqVvEu_A4T18Dzu_kgtU-41" value="6" style="rounded=0;whiteSpace=wrap;html=1;fillColor=#f5f5f5;strokeColor=#666666;fontColor=#333333;" vertex="1" parent="B5aAuwKSuuJqD-qLANvu-1">
          <mxGeometry x="450" y="550" width="20" height="20" as="geometry" />
        </mxCell>
        <mxCell id="xqVvEu_A4T18Dzu_kgtU-42" value="7" style="rounded=0;whiteSpace=wrap;html=1;fillColor=#60a917;strokeColor=#2D7600;fontColor=#ffffff;" vertex="1" parent="B5aAuwKSuuJqD-qLANvu-1">
          <mxGeometry x="470" y="550" width="20" height="20" as="geometry" />
        </mxCell>
        <mxCell id="xqVvEu_A4T18Dzu_kgtU-43" value="&lt;font style=&quot;font-size: 13px&quot;&gt;\(x_{output}\)&lt;/font&gt;" style="text;html=1;strokeColor=none;fillColor=none;align=center;verticalAlign=middle;whiteSpace=wrap;rounded=0;" vertex="1" parent="B5aAuwKSuuJqD-qLANvu-1">
          <mxGeometry x="290" y="550" width="40" height="20" as="geometry" />
        </mxCell>
        <mxCell id="xqVvEu_A4T18Dzu_kgtU-44" value="0" style="rounded=0;whiteSpace=wrap;html=1;" vertex="1" parent="B5aAuwKSuuJqD-qLANvu-1">
          <mxGeometry x="100" y="550" width="20" height="20" as="geometry" />
        </mxCell>
        <mxCell id="xqVvEu_A4T18Dzu_kgtU-45" value="1" style="rounded=0;whiteSpace=wrap;html=1;fillColor=#60a917;strokeColor=#2D7600;fontColor=#ffffff;" vertex="1" parent="B5aAuwKSuuJqD-qLANvu-1">
          <mxGeometry x="120" y="550" width="20" height="20" as="geometry" />
        </mxCell>
        <mxCell id="xqVvEu_A4T18Dzu_kgtU-46" value="2" style="rounded=0;whiteSpace=wrap;html=1;fillColor=#f5f5f5;strokeColor=#666666;fontColor=#333333;" vertex="1" parent="B5aAuwKSuuJqD-qLANvu-1">
          <mxGeometry x="140" y="550" width="20" height="20" as="geometry" />
        </mxCell>
        <mxCell id="xqVvEu_A4T18Dzu_kgtU-47" value="3" style="rounded=0;whiteSpace=wrap;html=1;" vertex="1" parent="B5aAuwKSuuJqD-qLANvu-1">
          <mxGeometry x="160" y="550" width="20" height="20" as="geometry" />
        </mxCell>
        <mxCell id="xqVvEu_A4T18Dzu_kgtU-48" value="4" style="rounded=0;whiteSpace=wrap;html=1;fillColor=#f5f5f5;strokeColor=#666666;fontColor=#333333;" vertex="1" parent="B5aAuwKSuuJqD-qLANvu-1">
          <mxGeometry x="180" y="550" width="20" height="20" as="geometry" />
        </mxCell>
        <mxCell id="xqVvEu_A4T18Dzu_kgtU-49" value="5" style="rounded=0;whiteSpace=wrap;html=1;fillColor=#f8cecc;strokeColor=#b85450;" vertex="1" parent="B5aAuwKSuuJqD-qLANvu-1">
          <mxGeometry x="200" y="550" width="20" height="20" as="geometry" />
        </mxCell>
        <mxCell id="xqVvEu_A4T18Dzu_kgtU-50" value="6" style="rounded=0;whiteSpace=wrap;html=1;fillColor=#f8cecc;strokeColor=#b85450;" vertex="1" parent="B5aAuwKSuuJqD-qLANvu-1">
          <mxGeometry x="220" y="550" width="20" height="20" as="geometry" />
        </mxCell>
        <mxCell id="xqVvEu_A4T18Dzu_kgtU-51" value="7" style="rounded=0;whiteSpace=wrap;html=1;fillColor=#f5f5f5;strokeColor=#666666;fontColor=#333333;" vertex="1" parent="B5aAuwKSuuJqD-qLANvu-1">
          <mxGeometry x="240" y="550" width="20" height="20" as="geometry" />
        </mxCell>
        <mxCell id="xqVvEu_A4T18Dzu_kgtU-52" value="&lt;font style=&quot;font-size: 13px&quot;&gt;\(x_{output}\)&lt;/font&gt;" style="text;html=1;strokeColor=none;fillColor=none;align=center;verticalAlign=middle;whiteSpace=wrap;rounded=0;" vertex="1" parent="B5aAuwKSuuJqD-qLANvu-1">
          <mxGeometry x="60" y="550" width="40" height="20" as="geometry" />
        </mxCell>
        <mxCell id="xqVvEu_A4T18Dzu_kgtU-53" value="Restore and replace" style="text;html=1;strokeColor=none;fillColor=none;align=center;verticalAlign=middle;whiteSpace=wrap;rounded=0;dashed=1;" vertex="1" parent="B5aAuwKSuuJqD-qLANvu-1">
          <mxGeometry x="130" y="290" width="120" height="10" as="geometry" />
        </mxCell>
        <mxCell id="xqVvEu_A4T18Dzu_kgtU-54" value="" style="endArrow=classic;html=1;" edge="1" parent="B5aAuwKSuuJqD-qLANvu-1">
          <mxGeometry width="50" height="50" relative="1" as="geometry">
            <mxPoint x="260" y="280" as="sourcePoint" />
            <mxPoint x="260" y="320" as="targetPoint" />
          </mxGeometry>
        </mxCell>
        <mxCell id="xqVvEu_A4T18Dzu_kgtU-55" value="1" style="rounded=0;whiteSpace=wrap;html=1;strokeColor=#b85450;fillColor=#f8cecc;" vertex="1" parent="B5aAuwKSuuJqD-qLANvu-1">
          <mxGeometry x="250" y="340" width="20" height="20" as="geometry" />
        </mxCell>
        <mxCell id="xqVvEu_A4T18Dzu_kgtU-56" value="5" style="rounded=0;whiteSpace=wrap;html=1;strokeColor=#2D7600;fillColor=#60a917;fontColor=#ffffff;" vertex="1" parent="B5aAuwKSuuJqD-qLANvu-1">
          <mxGeometry x="210" y="370" width="20" height="20" as="geometry" />
        </mxCell>
        <mxCell id="xqVvEu_A4T18Dzu_kgtU-57" value="4" style="rounded=0;whiteSpace=wrap;html=1;strokeColor=#b85450;fillColor=#f8cecc;" vertex="1" parent="B5aAuwKSuuJqD-qLANvu-1">
          <mxGeometry x="270" y="370" width="20" height="20" as="geometry" />
        </mxCell>
        <mxCell id="xqVvEu_A4T18Dzu_kgtU-58" value="1" style="rounded=0;whiteSpace=wrap;html=1;strokeColor=#b85450;fillColor=#f8cecc;" vertex="1" parent="B5aAuwKSuuJqD-qLANvu-1">
          <mxGeometry x="250" y="370" width="20" height="20" as="geometry" />
        </mxCell>
        <mxCell id="xqVvEu_A4T18Dzu_kgtU-59" value="" style="endArrow=classic;html=1;edgeStyle=orthogonalEdgeStyle;curved=1;" edge="1" parent="B5aAuwKSuuJqD-qLANvu-1">
          <mxGeometry width="50" height="50" relative="1" as="geometry">
            <mxPoint x="240" y="430" as="sourcePoint" />
            <mxPoint x="300" y="380" as="targetPoint" />
            <Array as="points">
              <mxPoint x="240" y="450" />
              <mxPoint x="320" y="450" />
              <mxPoint x="320" y="380" />
            </Array>
          </mxGeometry>
        </mxCell>
        <mxCell id="xqVvEu_A4T18Dzu_kgtU-60" value="1" style="rounded=0;whiteSpace=wrap;html=1;fillColor=#60a917;strokeColor=#2D7600;fontColor=#ffffff;" vertex="1" parent="B5aAuwKSuuJqD-qLANvu-1">
          <mxGeometry x="340" y="460" width="20" height="20" as="geometry" />
        </mxCell>
        <mxCell id="xqVvEu_A4T18Dzu_kgtU-61" value="5" style="rounded=0;whiteSpace=wrap;html=1;strokeColor=#b85450;fillColor=#f8cecc;" vertex="1" parent="B5aAuwKSuuJqD-qLANvu-1">
          <mxGeometry x="320" y="460" width="20" height="20" as="geometry" />
        </mxCell>
        <mxCell id="xqVvEu_A4T18Dzu_kgtU-62" value="better" style="text;html=1;strokeColor=none;fillColor=none;align=center;verticalAlign=middle;whiteSpace=wrap;rounded=0;" vertex="1" parent="B5aAuwKSuuJqD-qLANvu-1">
          <mxGeometry x="150" y="460" width="60" height="20" as="geometry" />
        </mxCell>
        <mxCell id="xqVvEu_A4T18Dzu_kgtU-63" value="" style="endArrow=classic;html=1;" edge="1" parent="B5aAuwKSuuJqD-qLANvu-1">
          <mxGeometry width="50" height="50" relative="1" as="geometry">
            <mxPoint x="220" y="500" as="sourcePoint" />
            <mxPoint x="220" y="530" as="targetPoint" />
          </mxGeometry>
        </mxCell>
        <mxCell id="xqVvEu_A4T18Dzu_kgtU-64" value="not better" style="text;html=1;strokeColor=none;fillColor=none;align=center;verticalAlign=middle;whiteSpace=wrap;rounded=0;" vertex="1" parent="B5aAuwKSuuJqD-qLANvu-1">
          <mxGeometry x="270" y="510" width="60" height="20" as="geometry" />
        </mxCell>
        <mxCell id="xqVvEu_A4T18Dzu_kgtU-65" value="" style="rounded=0;whiteSpace=wrap;html=1;" vertex="1" parent="B5aAuwKSuuJqD-qLANvu-1">
          <mxGeometry x="410" y="140" width="20" height="10" as="geometry" />
        </mxCell>
        <mxCell id="xqVvEu_A4T18Dzu_kgtU-66" value="&lt;div style=&quot;text-align: left&quot;&gt;&lt;span&gt;can&#39;t replace&lt;/span&gt;&lt;/div&gt;&lt;div style=&quot;text-align: left&quot;&gt;&lt;span&gt;repalced&lt;/span&gt;&lt;/div&gt;&lt;div style=&quot;text-align: left&quot;&gt;&lt;span&gt;non-replaced&lt;/span&gt;&lt;/div&gt;&lt;div style=&quot;text-align: left&quot;&gt;taboo&lt;/div&gt;" style="text;strokeColor=none;fillColor=none;align=center;verticalAlign=middle;whiteSpace=wrap;rounded=0;dashed=1;textOpacity=80;spacing=1;spacingBottom=0;fontStyle=0;html=1;" vertex="1" parent="B5aAuwKSuuJqD-qLANvu-1">
          <mxGeometry x="430" y="140" width="90" height="30" as="geometry" />
        </mxCell>
        <mxCell id="xqVvEu_A4T18Dzu_kgtU-67" value="" style="rounded=0;whiteSpace=wrap;html=1;fillColor=#dae8fc;strokeColor=#6c8ebf;" vertex="1" parent="B5aAuwKSuuJqD-qLANvu-1">
          <mxGeometry x="410" y="150" width="20" height="10" as="geometry" />
        </mxCell>
        <mxCell id="xqVvEu_A4T18Dzu_kgtU-68" value="" style="rounded=0;whiteSpace=wrap;html=1;fillColor=#f8cecc;strokeColor=#b85450;" vertex="1" parent="B5aAuwKSuuJqD-qLANvu-1">
          <mxGeometry x="410" y="160" width="20" height="10" as="geometry" />
        </mxCell>
        <mxCell id="xqVvEu_A4T18Dzu_kgtU-69" value="" style="rounded=0;whiteSpace=wrap;html=1;fillColor=#60a917;strokeColor=#2D7600;fontColor=#ffffff;" vertex="1" parent="B5aAuwKSuuJqD-qLANvu-1">
          <mxGeometry x="410" y="170" width="20" height="10" as="geometry" />
        </mxCell>
        <mxCell id="xqVvEu_A4T18Dzu_kgtU-70" value="" style="rounded=0;whiteSpace=wrap;html=1;fillColor=#CCCCFF;gradientDirection=north;gradientColor=#0000FF;" vertex="1" parent="B5aAuwKSuuJqD-qLANvu-1">
          <mxGeometry x="410" y="230" width="20" height="50" as="geometry" />
        </mxCell>
        <mxCell id="xqVvEu_A4T18Dzu_kgtU-71" value="high score" style="text;html=1;strokeColor=none;fillColor=none;align=center;verticalAlign=middle;whiteSpace=wrap;rounded=0;" vertex="1" parent="B5aAuwKSuuJqD-qLANvu-1">
          <mxGeometry x="430" y="220" width="70" height="10" as="geometry" />
        </mxCell>
        <mxCell id="xqVvEu_A4T18Dzu_kgtU-72" value="low score" style="text;html=1;strokeColor=none;fillColor=none;align=center;verticalAlign=middle;whiteSpace=wrap;rounded=0;" vertex="1" parent="B5aAuwKSuuJqD-qLANvu-1">
          <mxGeometry x="430" y="270" width="70" height="10" as="geometry" />
        </mxCell>
        <mxCell id="xqVvEu_A4T18Dzu_kgtU-73" value="5" style="rounded=0;whiteSpace=wrap;html=1;strokeColor=#2D7600;fillColor=#60a917;fontColor=#ffffff;" vertex="1" parent="B5aAuwKSuuJqD-qLANvu-1">
          <mxGeometry x="210" y="400" width="20" height="20" as="geometry" />
        </mxCell>
        <mxCell id="xqVvEu_A4T18Dzu_kgtU-74" value="6" style="rounded=0;whiteSpace=wrap;html=1;strokeColor=#b85450;fillColor=#f8cecc;" vertex="1" parent="B5aAuwKSuuJqD-qLANvu-1">
          <mxGeometry x="270" y="400" width="20" height="20" as="geometry" />
        </mxCell>
        <mxCell id="xqVvEu_A4T18Dzu_kgtU-75" value="1" style="rounded=0;whiteSpace=wrap;html=1;strokeColor=#b85450;fillColor=#f8cecc;" vertex="1" parent="B5aAuwKSuuJqD-qLANvu-1">
          <mxGeometry x="250" y="400" width="20" height="20" as="geometry" />
        </mxCell>
      </root>
    </mxGraphModel>
  </diagram>
  <diagram id="gOyq4q1iS_dfaBWrQguZ" name="Page-3">
    <mxGraphModel dx="415" dy="219" grid="1" gridSize="10" guides="0" tooltips="1" connect="0" arrows="1" fold="1" page="1" pageScale="1" pageWidth="1169" pageHeight="827" math="1" shadow="0">
      <root>
        <mxCell id="MFxYFpssYanwu08fMFRI-0" />
        <mxCell id="MFxYFpssYanwu08fMFRI-1" parent="MFxYFpssYanwu08fMFRI-0" />
        <mxCell id="sxlowt3Zb2KGdGXrNl2H-1" value="0" style="rounded=0;whiteSpace=wrap;html=1;" vertex="1" parent="MFxYFpssYanwu08fMFRI-1">
          <mxGeometry x="170" y="140" width="20" height="20" as="geometry" />
        </mxCell>
        <mxCell id="sxlowt3Zb2KGdGXrNl2H-2" value="1" style="rounded=0;whiteSpace=wrap;html=1;fillColor=#f8cecc;strokeColor=#b85450;" vertex="1" parent="MFxYFpssYanwu08fMFRI-1">
          <mxGeometry x="190" y="140" width="20" height="20" as="geometry" />
        </mxCell>
        <mxCell id="sxlowt3Zb2KGdGXrNl2H-3" value="2" style="rounded=0;whiteSpace=wrap;html=1;fillColor=#f5f5f5;strokeColor=#666666;fontColor=#333333;" vertex="1" parent="MFxYFpssYanwu08fMFRI-1">
          <mxGeometry x="210" y="140" width="20" height="20" as="geometry" />
        </mxCell>
        <mxCell id="sxlowt3Zb2KGdGXrNl2H-4" value="3" style="rounded=0;whiteSpace=wrap;html=1;" vertex="1" parent="MFxYFpssYanwu08fMFRI-1">
          <mxGeometry x="230" y="140" width="20" height="20" as="geometry" />
        </mxCell>
        <mxCell id="sxlowt3Zb2KGdGXrNl2H-5" value="4" style="rounded=0;whiteSpace=wrap;html=1;fillColor=#f5f5f5;strokeColor=#666666;fontColor=#333333;" vertex="1" parent="MFxYFpssYanwu08fMFRI-1">
          <mxGeometry x="250" y="140" width="20" height="20" as="geometry" />
        </mxCell>
        <mxCell id="sxlowt3Zb2KGdGXrNl2H-6" value="5" style="rounded=0;whiteSpace=wrap;html=1;fillColor=#f8cecc;strokeColor=#b85450;" vertex="1" parent="MFxYFpssYanwu08fMFRI-1">
          <mxGeometry x="270" y="140" width="20" height="20" as="geometry" />
        </mxCell>
        <mxCell id="sxlowt3Zb2KGdGXrNl2H-7" value="6" style="rounded=0;whiteSpace=wrap;html=1;fillColor=#f5f5f5;strokeColor=#666666;fontColor=#333333;" vertex="1" parent="MFxYFpssYanwu08fMFRI-1">
          <mxGeometry x="290" y="140" width="20" height="20" as="geometry" />
        </mxCell>
        <mxCell id="sxlowt3Zb2KGdGXrNl2H-8" value="7" style="rounded=0;whiteSpace=wrap;html=1;fillColor=#60a917;strokeColor=#2D7600;fontColor=#ffffff;" vertex="1" parent="MFxYFpssYanwu08fMFRI-1">
          <mxGeometry x="310" y="140" width="20" height="20" as="geometry" />
        </mxCell>
        <mxCell id="sxlowt3Zb2KGdGXrNl2H-9" value="&lt;font style=&quot;font-size: 13px&quot;&gt;\(x_{input}\)&lt;/font&gt;" style="text;html=1;strokeColor=none;fillColor=none;align=center;verticalAlign=middle;whiteSpace=wrap;rounded=0;" vertex="1" parent="MFxYFpssYanwu08fMFRI-1">
          <mxGeometry x="130" y="140" width="40" height="20" as="geometry" />
        </mxCell>
        <mxCell id="sxlowt3Zb2KGdGXrNl2H-10" value="" style="endArrow=classic;html=1;" edge="1" parent="MFxYFpssYanwu08fMFRI-1">
          <mxGeometry width="50" height="50" relative="1" as="geometry">
            <mxPoint x="220" y="160" as="sourcePoint" />
            <mxPoint x="190" y="180" as="targetPoint" />
          </mxGeometry>
        </mxCell>
        <mxCell id="sxlowt3Zb2KGdGXrNl2H-11" value="1" style="rounded=0;whiteSpace=wrap;html=1;fillColor=#f8cecc;strokeColor=#b85450;" vertex="1" parent="MFxYFpssYanwu08fMFRI-1">
          <mxGeometry x="170" y="180" width="20" height="20" as="geometry" />
        </mxCell>
        <mxCell id="sxlowt3Zb2KGdGXrNl2H-12" value="5" style="rounded=0;whiteSpace=wrap;html=1;fillColor=#f8cecc;strokeColor=#b85450;" vertex="1" parent="MFxYFpssYanwu08fMFRI-1">
          <mxGeometry x="190" y="180" width="20" height="20" as="geometry" />
        </mxCell>
        <mxCell id="sxlowt3Zb2KGdGXrNl2H-13" value="2" style="rounded=0;whiteSpace=wrap;html=1;fillColor=#f5f5f5;strokeColor=#666666;fontColor=#333333;" vertex="1" parent="MFxYFpssYanwu08fMFRI-1">
          <mxGeometry x="320" y="180" width="20" height="20" as="geometry" />
        </mxCell>
        <mxCell id="sxlowt3Zb2KGdGXrNl2H-14" value="4" style="rounded=0;whiteSpace=wrap;html=1;fillColor=#f5f5f5;strokeColor=#666666;fontColor=#333333;" vertex="1" parent="MFxYFpssYanwu08fMFRI-1">
          <mxGeometry x="340" y="180" width="20" height="20" as="geometry" />
        </mxCell>
        <mxCell id="sxlowt3Zb2KGdGXrNl2H-15" value="6" style="rounded=0;whiteSpace=wrap;html=1;fillColor=#f5f5f5;strokeColor=#666666;fontColor=#333333;" vertex="1" parent="MFxYFpssYanwu08fMFRI-1">
          <mxGeometry x="360" y="180" width="20" height="20" as="geometry" />
        </mxCell>
        <mxCell id="sxlowt3Zb2KGdGXrNl2H-16" value="&lt;font style=&quot;font-size: 13px&quot;&gt;\(w_{replaced}\)&lt;/font&gt;" style="text;html=1;strokeColor=none;fillColor=none;align=center;verticalAlign=middle;whiteSpace=wrap;rounded=0;" vertex="1" parent="MFxYFpssYanwu08fMFRI-1">
          <mxGeometry x="120" y="180" width="40" height="20" as="geometry" />
        </mxCell>
        <mxCell id="sxlowt3Zb2KGdGXrNl2H-17" value="&lt;font style=&quot;font-size: 13px&quot;&gt;\(w_{non-replaced}\)&lt;/font&gt;" style="text;html=1;strokeColor=none;fillColor=none;align=center;verticalAlign=middle;whiteSpace=wrap;rounded=0;" vertex="1" parent="MFxYFpssYanwu08fMFRI-1">
          <mxGeometry x="240" y="180" width="80" height="20" as="geometry" />
        </mxCell>
        <mxCell id="sxlowt3Zb2KGdGXrNl2H-18" value="" style="endArrow=classic;html=1;" edge="1" parent="MFxYFpssYanwu08fMFRI-1">
          <mxGeometry width="50" height="50" relative="1" as="geometry">
            <mxPoint x="290" y="160" as="sourcePoint" />
            <mxPoint x="320" y="180" as="targetPoint" />
          </mxGeometry>
        </mxCell>
        <mxCell id="sxlowt3Zb2KGdGXrNl2H-19" value="" style="endArrow=classic;html=1;" edge="1" parent="MFxYFpssYanwu08fMFRI-1">
          <mxGeometry width="50" height="50" relative="1" as="geometry">
            <mxPoint x="260" y="210" as="sourcePoint" />
            <mxPoint x="260" y="240" as="targetPoint" />
          </mxGeometry>
        </mxCell>
        <mxCell id="sxlowt3Zb2KGdGXrNl2H-20" value="&lt;font style=&quot;font-size: 11px&quot;&gt;Random r&lt;/font&gt;estore" style="text;html=1;strokeColor=none;fillColor=none;align=center;verticalAlign=middle;whiteSpace=wrap;rounded=0;" vertex="1" parent="MFxYFpssYanwu08fMFRI-1">
          <mxGeometry x="150" y="220" width="90" height="10" as="geometry" />
        </mxCell>
        <mxCell id="sxlowt3Zb2KGdGXrNl2H-24" value="get score" style="text;html=1;strokeColor=none;fillColor=none;align=center;verticalAlign=middle;whiteSpace=wrap;rounded=0;" vertex="1" parent="MFxYFpssYanwu08fMFRI-1">
          <mxGeometry x="170" y="350" width="40" height="20" as="geometry" />
        </mxCell>
        <mxCell id="sxlowt3Zb2KGdGXrNl2H-25" value="5" style="rounded=0;whiteSpace=wrap;html=1;strokeColor=#2D7600;fillColor=#60a917;fontColor=#ffffff;" vertex="1" parent="MFxYFpssYanwu08fMFRI-1">
          <mxGeometry x="250" y="250" width="20" height="20" as="geometry" />
        </mxCell>
        <mxCell id="sxlowt3Zb2KGdGXrNl2H-26" value="2" style="rounded=0;whiteSpace=wrap;html=1;strokeColor=#b85450;fillColor=#f8cecc;" vertex="1" parent="MFxYFpssYanwu08fMFRI-1">
          <mxGeometry x="260" y="330" width="20" height="20" as="geometry" />
        </mxCell>
        <mxCell id="sxlowt3Zb2KGdGXrNl2H-40" value="0" style="rounded=0;whiteSpace=wrap;html=1;" vertex="1" parent="MFxYFpssYanwu08fMFRI-1">
          <mxGeometry x="190" y="470" width="20" height="20" as="geometry" />
        </mxCell>
        <mxCell id="sxlowt3Zb2KGdGXrNl2H-41" value="1" style="rounded=0;whiteSpace=wrap;html=1;fillColor=#f8cecc;strokeColor=#b85450;" vertex="1" parent="MFxYFpssYanwu08fMFRI-1">
          <mxGeometry x="210" y="470" width="20" height="20" as="geometry" />
        </mxCell>
        <mxCell id="sxlowt3Zb2KGdGXrNl2H-42" value="2" style="rounded=0;whiteSpace=wrap;html=1;fillColor=#f5f5f5;strokeColor=#666666;fontColor=#333333;" vertex="1" parent="MFxYFpssYanwu08fMFRI-1">
          <mxGeometry x="230" y="470" width="20" height="20" as="geometry" />
        </mxCell>
        <mxCell id="sxlowt3Zb2KGdGXrNl2H-43" value="3" style="rounded=0;whiteSpace=wrap;html=1;" vertex="1" parent="MFxYFpssYanwu08fMFRI-1">
          <mxGeometry x="250" y="470" width="20" height="20" as="geometry" />
        </mxCell>
        <mxCell id="sxlowt3Zb2KGdGXrNl2H-44" value="4" style="rounded=0;whiteSpace=wrap;html=1;fillColor=#f5f5f5;strokeColor=#666666;fontColor=#333333;" vertex="1" parent="MFxYFpssYanwu08fMFRI-1">
          <mxGeometry x="270" y="470" width="20" height="20" as="geometry" />
        </mxCell>
        <mxCell id="sxlowt3Zb2KGdGXrNl2H-45" value="5" style="rounded=0;whiteSpace=wrap;html=1;fillColor=#60a917;strokeColor=#2D7600;fontColor=#ffffff;" vertex="1" parent="MFxYFpssYanwu08fMFRI-1">
          <mxGeometry x="290" y="470" width="20" height="20" as="geometry" />
        </mxCell>
        <mxCell id="sxlowt3Zb2KGdGXrNl2H-46" value="6" style="rounded=0;whiteSpace=wrap;html=1;fillColor=#f8cecc;strokeColor=#b85450;" vertex="1" parent="MFxYFpssYanwu08fMFRI-1">
          <mxGeometry x="310" y="470" width="20" height="20" as="geometry" />
        </mxCell>
        <mxCell id="sxlowt3Zb2KGdGXrNl2H-47" value="7" style="rounded=0;whiteSpace=wrap;html=1;fillColor=#f5f5f5;strokeColor=#666666;fontColor=#333333;" vertex="1" parent="MFxYFpssYanwu08fMFRI-1">
          <mxGeometry x="330" y="470" width="20" height="20" as="geometry" />
        </mxCell>
        <mxCell id="sxlowt3Zb2KGdGXrNl2H-48" value="&lt;font style=&quot;font-size: 13px&quot;&gt;\(x_{output}\)&lt;/font&gt;" style="text;html=1;strokeColor=none;fillColor=none;align=center;verticalAlign=middle;whiteSpace=wrap;rounded=0;" vertex="1" parent="MFxYFpssYanwu08fMFRI-1">
          <mxGeometry x="150" y="470" width="40" height="20" as="geometry" />
        </mxCell>
        <mxCell id="sxlowt3Zb2KGdGXrNl2H-49" value="Replace" style="text;html=1;strokeColor=none;fillColor=none;align=center;verticalAlign=middle;whiteSpace=wrap;rounded=0;dashed=1;" vertex="1" parent="MFxYFpssYanwu08fMFRI-1">
          <mxGeometry x="130" y="290" width="120" height="10" as="geometry" />
        </mxCell>
        <mxCell id="sxlowt3Zb2KGdGXrNl2H-50" value="" style="endArrow=classic;html=1;" edge="1" parent="MFxYFpssYanwu08fMFRI-1">
          <mxGeometry width="50" height="50" relative="1" as="geometry">
            <mxPoint x="260" y="280" as="sourcePoint" />
            <mxPoint x="260" y="320" as="targetPoint" />
          </mxGeometry>
        </mxCell>
        <mxCell id="sxlowt3Zb2KGdGXrNl2H-51" value="1" style="rounded=0;whiteSpace=wrap;html=1;strokeColor=#b85450;fillColor=#f8cecc;" vertex="1" parent="MFxYFpssYanwu08fMFRI-1">
          <mxGeometry x="240" y="330" width="20" height="20" as="geometry" />
        </mxCell>
        <mxCell id="sxlowt3Zb2KGdGXrNl2H-53" value="4" style="rounded=0;whiteSpace=wrap;html=1;strokeColor=#b85450;fillColor=#f8cecc;" vertex="1" parent="MFxYFpssYanwu08fMFRI-1">
          <mxGeometry x="260" y="360" width="20" height="20" as="geometry" />
        </mxCell>
        <mxCell id="sxlowt3Zb2KGdGXrNl2H-54" value="1" style="rounded=0;whiteSpace=wrap;html=1;strokeColor=#b85450;fillColor=#f8cecc;" vertex="1" parent="MFxYFpssYanwu08fMFRI-1">
          <mxGeometry x="240" y="360" width="20" height="20" as="geometry" />
        </mxCell>
        <mxCell id="sxlowt3Zb2KGdGXrNl2H-61" value="" style="rounded=0;whiteSpace=wrap;html=1;" vertex="1" parent="MFxYFpssYanwu08fMFRI-1">
          <mxGeometry x="410" y="140" width="20" height="10" as="geometry" />
        </mxCell>
        <mxCell id="sxlowt3Zb2KGdGXrNl2H-62" value="&lt;div style=&quot;text-align: left&quot;&gt;&lt;span&gt;can&#39;t replace&lt;/span&gt;&lt;/div&gt;&lt;div style=&quot;text-align: left&quot;&gt;&lt;span&gt;repalced&lt;/span&gt;&lt;/div&gt;&lt;div style=&quot;text-align: left&quot;&gt;&lt;span&gt;non-replaced&lt;/span&gt;&lt;/div&gt;&lt;div style=&quot;text-align: left&quot;&gt;taboo&lt;/div&gt;" style="text;strokeColor=none;fillColor=none;align=center;verticalAlign=middle;whiteSpace=wrap;rounded=0;dashed=1;textOpacity=80;spacing=1;spacingBottom=0;fontStyle=0;html=1;" vertex="1" parent="MFxYFpssYanwu08fMFRI-1">
          <mxGeometry x="430" y="140" width="90" height="30" as="geometry" />
        </mxCell>
        <mxCell id="sxlowt3Zb2KGdGXrNl2H-63" value="" style="rounded=0;whiteSpace=wrap;html=1;fillColor=#dae8fc;strokeColor=#6c8ebf;" vertex="1" parent="MFxYFpssYanwu08fMFRI-1">
          <mxGeometry x="410" y="150" width="20" height="10" as="geometry" />
        </mxCell>
        <mxCell id="sxlowt3Zb2KGdGXrNl2H-64" value="" style="rounded=0;whiteSpace=wrap;html=1;fillColor=#f8cecc;strokeColor=#b85450;" vertex="1" parent="MFxYFpssYanwu08fMFRI-1">
          <mxGeometry x="410" y="160" width="20" height="10" as="geometry" />
        </mxCell>
        <mxCell id="sxlowt3Zb2KGdGXrNl2H-65" value="" style="rounded=0;whiteSpace=wrap;html=1;fillColor=#60a917;strokeColor=#2D7600;fontColor=#ffffff;" vertex="1" parent="MFxYFpssYanwu08fMFRI-1">
          <mxGeometry x="410" y="170" width="20" height="10" as="geometry" />
        </mxCell>
        <mxCell id="sxlowt3Zb2KGdGXrNl2H-70" value="6" style="rounded=0;whiteSpace=wrap;html=1;strokeColor=#b85450;fillColor=#f8cecc;" vertex="1" parent="MFxYFpssYanwu08fMFRI-1">
          <mxGeometry x="260" y="390" width="20" height="20" as="geometry" />
        </mxCell>
        <mxCell id="sxlowt3Zb2KGdGXrNl2H-71" value="1" style="rounded=0;whiteSpace=wrap;html=1;strokeColor=#b85450;fillColor=#f8cecc;" vertex="1" parent="MFxYFpssYanwu08fMFRI-1">
          <mxGeometry x="240" y="390" width="20" height="20" as="geometry" />
        </mxCell>
        <mxCell id="sxlowt3Zb2KGdGXrNl2H-74" value="" style="endArrow=classic;html=1;" edge="1" parent="MFxYFpssYanwu08fMFRI-1">
          <mxGeometry width="50" height="50" relative="1" as="geometry">
            <mxPoint x="260" y="420" as="sourcePoint" />
            <mxPoint x="260" y="460" as="targetPoint" />
          </mxGeometry>
        </mxCell>
      </root>
    </mxGraphModel>
  </diagram>
</mxfile>
